<?xml version="1.0" encoding="UTF-8"?><svg id="Layer_1" xmlns="http://www.w3.org/2000/svg" viewBox="0 0 32 32"><defs><style>.cls-1,.cls-2,.cls-3,.cls-4,.cls-5{stroke-width:0px;}.cls-1,.cls-6{fill:none;}.cls-2{fill:#1b1464;opacity:.15;}.cls-7{opacity:.5;}.cls-3{fill:#2e3192;}.cls-4{fill:#fff;}.cls-5{fill:#ffb400;}.cls-6{stroke:#fff;stroke-miterlimit:10;stroke-width:1px;}</style></defs><rect class="cls-3" width="32" height="32"/><g id="News_slick_slider-v2"><path class="cls-3" d="m2.16,4.29h27.68c.92,0,1.66.86,1.66,1.91v19.59c0,1.06-.74,1.91-1.66,1.91H2.16c-.92,0-1.66-.86-1.66-1.91V6.21c0-1.06.74-1.91,1.66-1.91Z"/><g class="cls-7"><rect class="cls-4" x="8.83" y="22.57" width="14.34" height=".47"/></g><g class="cls-7"><rect class="cls-4" x="10.06" y="24.07" width="11.88" height=".47"/></g></g><path class="cls-2" d="m9.88,9.98h13.43c.33,0,.6.27.6.6v9.84c0,.33-.27.6-.6.6h-13.43c-.33,0-.6-.27-.6-.6v-9.84c0-.33.27-.6.6-.6Z"/><path class="cls-2" d="m31.5,9.98h-4.89c-.33,0-.6.27-.6.6v9.84c0,.33.27.6.6.6h4.89v-11.04Z"/><path class="cls-2" d="m.5,21.02h6.09c.33,0,.6-.27.6-.6v-9.84c0-.33-.27-.6-.6-.6H.5v11.04Z"/><path class="cls-5" d="m9.29,9.38h13.43c.33,0,.6.27.6.6v9.84c0,.33-.27.6-.6.6h-13.43c-.33,0-.6-.27-.6-.6v-9.84c0-.33.27-.6.6-.6Z"/><path class="cls-4" d="m10.41,11.33v7.42c0,.26.21.47.47.47h10.04c.26,0,.47-.21.47-.47v-7.42c0-.26-.21-.47-.47-.47h-10.04c-.26,0-.47.21-.47.47Zm2.47.65c.96-.23,1.8.61,1.57,1.57-.11.45-.48.82-.93.93-.96.23-1.8-.61-1.57-1.57.11-.45.48-.82.93-.93Zm7.87,6.6h-9.69v-.45l2.68-2.68,1.31,1.31,3.86-3.86,1.84,1.84v3.84Z"/><polyline class="cls-6" points="5.31 13.23 3.49 15.05 5.25 16.91"/><polyline class="cls-6" points="26.68 16.91 28.5 15.1 26.74 13.23"/><polyline class="cls-1" points="32 32 0 32 0 0"/></svg>